<?xml version="1.0"?>
<svg xmlns:rdf="http://www.w3.org/1999/02/22-rdf-syntax-ns#" xmlns="http://www.w3.org/2000/svg" xmlns:cc="http://web.resource.org/cc/" xmlns:dc="http://purl.org/dc/elements/1.1/" xmlns:svg="http://www.w3.org/2000/svg" id="svg2" viewBox="0 0 745.57 745.57" version="1.0">
  <g id="layer1" transform="translate(.000013530 .000012292)">
    <g id="g2214" stroke-linejoin="round" transform="matrix(.44338 0 0 .44338 234.71 105.71)" stroke="#000" stroke-linecap="round" fill="none">
      <path id="path3139" stroke-width="5" d="m582.86 602.36a271.43 271.43 0 1 1 -542.86 0 271.43 271.43 0 1 1 542.86 0z"/>
      <path id="path4171" d="m582.86 602.36a271.43 271.43 0 1 1 -542.86 0 271.43 271.43 0 1 1 542.86 0z" stroke-width="5" transform="translate(180.89 202.5)"/>
      <path id="path4181" d="m582.86 602.36a271.43 271.43 0 1 1 -542.86 0 271.43 271.43 0 1 1 542.86 0z" stroke-width="5" transform="translate(-84.821 258.04)"/>
      <path id="path4191" d="m582.86 602.36a271.43 271.43 0 1 1 -542.86 0 271.43 271.43 0 1 1 542.86 0z" stroke-width="5" transform="translate(-265.54 55.67)"/>
      <path id="path4201" d="m582.86 602.36a271.43 271.43 0 1 1 -542.86 0 271.43 271.43 0 1 1 542.86 0z" stroke-width="5" transform="translate(-180.71 -202.41)"/>
      <path id="path4211" d="m582.86 602.36a271.43 271.43 0 1 1 -542.86 0 271.43 271.43 0 1 1 542.86 0z" stroke-width="5" transform="translate(85.089 -257.77)"/>
      <path id="path4221" d="m582.86 602.36a271.43 271.43 0 1 1 -542.86 0 271.43 271.43 0 1 1 542.86 0z" stroke-width="5" transform="translate(266.07 -55.357)"/>
      <path id="path4231" d="m582.86 602.36a271.43 271.43 0 1 1 -542.86 0 271.43 271.43 0 1 1 542.86 0z" stroke-width="5" transform="translate(350.94 -313.04)"/>
      <path id="path4241" d="m582.86 602.36a271.43 271.43 0 1 1 -542.86 0 271.43 271.43 0 1 1 542.86 0z" stroke-width="5" transform="translate(-95.714 -460.18)"/>
      <path id="path4251" d="m582.86 602.36a271.43 271.43 0 1 1 -542.86 0 271.43 271.43 0 1 1 542.86 0z" stroke-width="5" transform="translate(-446.28 -146.75)"/>
      <path id="path4261" d="m582.86 602.36a271.43 271.43 0 1 1 -542.86 0 271.43 271.43 0 1 1 542.86 0z" stroke-width="5" transform="translate(-350.45 313.63)"/>
      <path id="path4271" d="m582.86 602.36a271.43 271.43 0 1 1 -542.86 0 271.43 271.43 0 1 1 542.86 0z" stroke-width="5" transform="translate(96.071 460.27)"/>
      <path id="path4281" d="m582.86 602.36a271.43 271.43 0 1 1 -542.86 0 271.43 271.43 0 1 1 542.86 0z" stroke-width="5" transform="translate(446.72 147.21)"/>
      <path id="path4291" d="m582.86 602.36a271.43 271.43 0 1 1 -542.86 0 271.43 271.43 0 1 1 542.86 0z" stroke-width="5" transform="translate(531.96 -110.45)"/>
      <path id="path4301" d="m582.86 602.36a271.43 271.43 0 1 1 -542.86 0 271.43 271.43 0 1 1 542.86 0z" stroke-width="5" transform="translate(361.84 404.86)"/>
      <path id="path4311" d="m582.86 602.36a271.43 271.43 0 1 1 -542.86 0 271.43 271.43 0 1 1 542.86 0z" stroke-width="5" transform="translate(-169.55 516.03)"/>
      <path id="path4321" d="m582.86 602.36a271.43 271.43 0 1 1 -542.86 0 271.43 271.43 0 1 1 542.86 0z" stroke-width="5" transform="translate(-531.07 111.09)"/>
      <path id="path4331" d="m582.86 602.36a271.43 271.43 0 1 1 -542.86 0 271.43 271.43 0 1 1 542.86 0z" stroke-width="5" transform="translate(-361.59 -404.87)"/>
      <path id="path4341" d="m582.86 602.36a271.43 271.43 0 1 1 -542.86 0 271.43 271.43 0 1 1 542.86 0z" stroke-width="5" transform="translate(170.19 -515.58)"/>
      <path id="path4351" d="m45.711 657.75a271.43 271.43 0 0 1 531.34 -111.22" stroke-width="5" transform="translate(277.1 662.59)"/>
      <path id="path4361" d="m45.766 658.01a271.43 271.43 0 0 1 531.28 -111.5" stroke-width="5" transform="translate(11.518 718.17)"/>
      <path id="path4371" d="m130.62 399.92a271.43 271.43 0 0 1 361.9 404.63" stroke-width="5" transform="translate(-435.15 571.47)"/>
      <path id="path4391" d="m130.88 399.69a271.43 271.43 0 0 1 361.67 404.84" stroke-width="5" transform="translate(-616.12 369.06)"/>
      <path id="path4401" d="m396.4 344.58a271.43 271.43 0 0 1 -169.75 515.63" stroke-width="5" transform="translate(-711.96 -91.161)"/>
      <path id="path4411" d="m396.28 344.54a271.43 271.43 0 0 1 -169.44 515.73" stroke-width="5" transform="translate(-627.17 -349.11)"/>
      <path id="path4421" d="m577.15 547.01a271.43 271.43 0 0 1 -531.43 110.78" stroke-width="5" transform="translate(-276.38 -662.59)"/>
      <path id="path4431" d="m577.17 547.11a271.43 271.43 0 0 1 -531.4 110.93" stroke-width="5" transform="translate(-10.625 -717.99)"/>
      <path id="path4441" d="m492.24 804.8a271.43 271.43 0 0 1 -446.55 -147.14" stroke-width="5" transform="translate(255.13 -773.28)"/>
      <path id="path4451" d="m492.12 804.91a271.43 271.43 0 0 1 -361.76 -404.75" stroke-width="5" transform="translate(435.98 -571)"/>
      <path id="path4461" d="m492.22 804.82a271.43 271.43 0 0 1 -361.8 -404.72" stroke-width="5" transform="translate(616.76 -368.53)"/>
      <path id="path4471" d="m226.29 860.09a271.43 271.43 0 0 1 170.2 -515.48" stroke-width="5" transform="translate(712.46 92.328)"/>
      <path id="path4481" d="m225.98 859.99a271.43 271.43 0 0 1 170.15 -515.5" stroke-width="5" transform="translate(627.61 349.84)"/>
      <path id="path2333" d="m577.15 547.01a271.43 271.43 0 0 1 -350.29 313.27" stroke-width="5" transform="translate(-542.18 -607.19)"/>
      <path id="path5254" d="m577.15 546.99a271.43 271.43 0 0 1 -84.96 257.86" stroke-width="5" transform="translate(-807.77 -551.66)"/>
      <path id="path5264" d="m491.94 805.07a271.43 271.43 0 0 1 -265.46 55.08" stroke-width="5" transform="translate(-457.12 -865)"/>
      <path id="path5274" d="m492.1 804.92a271.43 271.43 0 0 1 -265.42 55.3" stroke-width="5" transform="translate(-191.4 -920.51)"/>
      <path id="path5284" d="m492.31 804.74a271.43 271.43 0 0 1 -266.16 55.31" stroke-width="5" transform="translate(74.603 -975.81)"/>
      <path id="path5294" d="m226.33 860.11a271.43 271.43 0 0 1 -180.52 -201.91" stroke-width="5" transform="translate(520.81 -828.88)"/>
      <path id="path5304" d="m226.05 860.01a271.43 271.43 0 0 1 -180.27 -201.93" stroke-width="5" transform="translate(701.7 -626.55)"/>
      <path id="path5314" d="m226.5 860.16a271.43 271.43 0 0 1 -96.09 -460.05" stroke-width="5" transform="translate(797.79 -165.84)"/>
      <path id="path5324" d="m226.4 860.13a271.43 271.43 0 0 1 -180.59 -201.92" stroke-width="5" transform="translate(882.55 -424.13)"/>
      <path id="path5334" d="m45.573 657.08a271.43 271.43 0 0 1 85.207 -257.3" stroke-width="5" transform="translate(978.2 36.829)"/>
      <path id="path5344" d="m45.564 657.04a271.43 271.43 0 0 1 84.626 -256.73" stroke-width="5" transform="translate(893.57 294.56)"/>
      <path id="path5354" d="m45.575 657.09a271.43 271.43 0 0 1 85.205 -257.31" stroke-width="5" transform="translate(808.18 552.33)"/>
      <path id="path5364" d="m45.626 657.34a271.43 271.43 0 0 1 350.43 -312.88" stroke-width="5" transform="translate(542.69 607.35)"/>
      <path id="path5374" d="m130.99 399.59a271.43 271.43 0 0 1 265 -55.15" stroke-width="5" transform="translate(457.63 865.22)"/>
      <path id="path5384" d="m130.73 399.83a271.43 271.43 0 0 1 265.22 -55.4" stroke-width="5" transform="translate(192.19 920.54)"/>
      <path id="path5394" d="m130.61 399.93a271.43 271.43 0 0 1 265.45 -55.47" stroke-width="5" transform="translate(-73.465 976.09)"/>
      <path id="path5404" d="m130.49 400.04a271.43 271.43 0 0 1 446.56 146.5" stroke-width="5" transform="translate(-254.01 773.72)"/>
      <path id="path5414" d="m396.1 344.48a271.43 271.43 0 0 1 180.94 201.98" stroke-width="5" transform="translate(-519.63 829.52)"/>
      <path id="path5424" d="m396.39 344.57a271.43 271.43 0 0 1 180.69 202.07" stroke-width="5" transform="translate(-700.87 626.98)"/>
      <path id="path5434" d="m396.62 344.65a271.43 271.43 0 0 1 180.46 202.03" stroke-width="5" transform="translate(-881.85 424.7)"/>
      <path id="path5444" d="m396.17 344.5a271.43 271.43 0 0 1 96.25 460.14" stroke-width="5" transform="translate(-796.74 166.55)"/>
      <path id="path5454" d="m577.13 546.89a271.43 271.43 0 0 1 -84.69 257.73" stroke-width="5" transform="translate(-977.68 -35.75)"/>
      <path id="path5464" d="m577.06 546.58a271.43 271.43 0 0 1 -84.74 258.15" stroke-width="5" transform="translate(-892.65 -293.64)"/>
      <path id="path6883" d="m582.86 602.36a271.43 271.43 0 1 1 -542.86 0 271.43 271.43 0 1 1 542.86 0z" stroke-width="1.6667" transform="matrix(3 0 0 3 -622.86 -1204.7)"/>
      <path id="path7854" d="m582.86 602.36a271.43 271.43 0 1 1 -542.86 0 271.43 271.43 0 1 1 542.86 0z" stroke-width="1.619" transform="matrix(3.0884 0 0 3.0884 -650.39 -1258)"/>
    </g>
  </g>
  <metadata>
    <rdf:RDF>
      <cc:Work>
        <dc:format>image/svg+xml</dc:format>
        <dc:type rdf:resource="http://purl.org/dc/dcmitype/StillImage"/>
        <cc:license rdf:resource="http://creativecommons.org/licenses/publicdomain/"/>
        <dc:publisher>
          <cc:Agent rdf:about="http://openclipart.org/">
            <dc:title>Openclipart</dc:title>
          </cc:Agent>
        </dc:publisher>
        <dc:title>Flower of Life Symbol</dc:title>
        <dc:date>2007-08-13T19:07:11</dc:date>
        <dc:description>The Flower of Life symbol is claimed to be one of the most powerful esoteric symbols with first useage dating back hundreds of thousands of years (an alternate history is also proposed in which human civilization existed then as well.) The symbol has been popularized by Drunvalo Melchizedek. This rendering is hand-drawn in a vector illustrator program and hence not completely  precise, but has proven very effective for me as a calming device.</dc:description>
        <dc:source>http://openclipart.org/detail/4791/flower-of-life-symbol-by-carlotheman</dc:source>
        <dc:creator>
          <cc:Agent>
            <dc:title>carlotheman</dc:title>
          </cc:Agent>
        </dc:creator>
        <dc:subject>
          <rdf:Bag>
            <rdf:li>aiflowers</rdf:li>
            <rdf:li>clip art</rdf:li>
            <rdf:li>clipart</rdf:li>
            <rdf:li>energy healing</rdf:li>
            <rdf:li>esoteric</rdf:li>
            <rdf:li>flower of life</rdf:li>
            <rdf:li>image</rdf:li>
            <rdf:li>mandala</rdf:li>
            <rdf:li>media</rdf:li>
            <rdf:li>public domain</rdf:li>
            <rdf:li>svg</rdf:li>
            <rdf:li>symbol</rdf:li>
          </rdf:Bag>
        </dc:subject>
      </cc:Work>
      <cc:License rdf:about="http://creativecommons.org/licenses/publicdomain/">
        <cc:permits rdf:resource="http://creativecommons.org/ns#Reproduction"/>
        <cc:permits rdf:resource="http://creativecommons.org/ns#Distribution"/>
        <cc:permits rdf:resource="http://creativecommons.org/ns#DerivativeWorks"/>
      </cc:License>
    </rdf:RDF>
  </metadata>
</svg>
